<mxfile host="app.diagrams.net" modified="2021-04-23T09:28:42.003Z" agent="5.0 (Windows)" etag="nABAHmYS52VTHa6Ne4An" version="14.6.6" type="github">
  <diagram id="0ps_Zl3kiKqyffKsy60U" name="Page-1">
    <mxGraphModel dx="1722" dy="417" grid="1" gridSize="10" guides="1" tooltips="1" connect="1" arrows="1" fold="1" page="1" pageScale="1" pageWidth="827" pageHeight="1169" math="0" shadow="0">
      <root>
        <mxCell id="0" />
        <mxCell id="1" parent="0" />
        <mxCell id="8YBc7bxGXD-Rz9hd7dQo-9" style="edgeStyle=orthogonalEdgeStyle;rounded=0;orthogonalLoop=1;jettySize=auto;html=1;entryX=0.5;entryY=0;entryDx=0;entryDy=0;exitX=0.5;exitY=1;exitDx=0;exitDy=0;" edge="1" parent="1" source="8YBc7bxGXD-Rz9hd7dQo-1" target="8YBc7bxGXD-Rz9hd7dQo-2">
          <mxGeometry relative="1" as="geometry" />
        </mxCell>
        <mxCell id="8YBc7bxGXD-Rz9hd7dQo-17" style="edgeStyle=orthogonalEdgeStyle;rounded=0;orthogonalLoop=1;jettySize=auto;html=1;entryX=0.5;entryY=0;entryDx=0;entryDy=0;exitX=0.5;exitY=1;exitDx=0;exitDy=0;" edge="1" parent="1" source="8YBc7bxGXD-Rz9hd7dQo-1" target="8YBc7bxGXD-Rz9hd7dQo-16">
          <mxGeometry relative="1" as="geometry">
            <Array as="points">
              <mxPoint x="400" y="170" />
              <mxPoint x="580" y="170" />
            </Array>
          </mxGeometry>
        </mxCell>
        <mxCell id="8YBc7bxGXD-Rz9hd7dQo-31" value="同步的系统" style="edgeLabel;html=1;align=center;verticalAlign=middle;resizable=0;points=[];" vertex="1" connectable="0" parent="8YBc7bxGXD-Rz9hd7dQo-17">
          <mxGeometry x="-0.3067" y="3" relative="1" as="geometry">
            <mxPoint y="-7" as="offset" />
          </mxGeometry>
        </mxCell>
        <mxCell id="8YBc7bxGXD-Rz9hd7dQo-29" style="edgeStyle=orthogonalEdgeStyle;rounded=0;orthogonalLoop=1;jettySize=auto;html=1;entryX=0.5;entryY=0;entryDx=0;entryDy=0;exitX=0.5;exitY=1;exitDx=0;exitDy=0;" edge="1" parent="1" source="8YBc7bxGXD-Rz9hd7dQo-1" target="8YBc7bxGXD-Rz9hd7dQo-22">
          <mxGeometry relative="1" as="geometry" />
        </mxCell>
        <mxCell id="8YBc7bxGXD-Rz9hd7dQo-30" value="非同步的系统" style="edgeLabel;html=1;align=center;verticalAlign=middle;resizable=0;points=[];" vertex="1" connectable="0" parent="8YBc7bxGXD-Rz9hd7dQo-29">
          <mxGeometry x="-0.5519" y="2" relative="1" as="geometry">
            <mxPoint x="11" y="-12" as="offset" />
          </mxGeometry>
        </mxCell>
        <mxCell id="8YBc7bxGXD-Rz9hd7dQo-33" style="edgeStyle=orthogonalEdgeStyle;rounded=0;orthogonalLoop=1;jettySize=auto;html=1;" edge="1" parent="1" source="8YBc7bxGXD-Rz9hd7dQo-1" target="8YBc7bxGXD-Rz9hd7dQo-32">
          <mxGeometry relative="1" as="geometry">
            <Array as="points">
              <mxPoint x="400" y="170" />
              <mxPoint x="-220" y="170" />
            </Array>
          </mxGeometry>
        </mxCell>
        <mxCell id="8YBc7bxGXD-Rz9hd7dQo-1" value="DAQ" style="rounded=0;whiteSpace=wrap;html=1;" vertex="1" parent="1">
          <mxGeometry x="340" y="50" width="120" height="60" as="geometry" />
        </mxCell>
        <mxCell id="8YBc7bxGXD-Rz9hd7dQo-6" style="edgeStyle=orthogonalEdgeStyle;rounded=0;orthogonalLoop=1;jettySize=auto;html=1;entryX=0;entryY=0.5;entryDx=0;entryDy=0;" edge="1" parent="1" source="8YBc7bxGXD-Rz9hd7dQo-2" target="8YBc7bxGXD-Rz9hd7dQo-3">
          <mxGeometry relative="1" as="geometry" />
        </mxCell>
        <mxCell id="8YBc7bxGXD-Rz9hd7dQo-7" style="edgeStyle=orthogonalEdgeStyle;rounded=0;orthogonalLoop=1;jettySize=auto;html=1;entryX=0;entryY=0.5;entryDx=0;entryDy=0;" edge="1" parent="1" source="8YBc7bxGXD-Rz9hd7dQo-2" target="8YBc7bxGXD-Rz9hd7dQo-4">
          <mxGeometry relative="1" as="geometry" />
        </mxCell>
        <mxCell id="8YBc7bxGXD-Rz9hd7dQo-8" style="edgeStyle=orthogonalEdgeStyle;rounded=0;orthogonalLoop=1;jettySize=auto;html=1;entryX=0;entryY=0.5;entryDx=0;entryDy=0;" edge="1" parent="1" source="8YBc7bxGXD-Rz9hd7dQo-2" target="8YBc7bxGXD-Rz9hd7dQo-5">
          <mxGeometry relative="1" as="geometry" />
        </mxCell>
        <mxCell id="8YBc7bxGXD-Rz9hd7dQo-10" value="Modbus" style="edgeLabel;html=1;align=center;verticalAlign=middle;resizable=0;points=[];" vertex="1" connectable="0" parent="8YBc7bxGXD-Rz9hd7dQo-8">
          <mxGeometry x="-0.8" y="-1" relative="1" as="geometry">
            <mxPoint x="-29" y="-5" as="offset" />
          </mxGeometry>
        </mxCell>
        <mxCell id="8YBc7bxGXD-Rz9hd7dQo-2" value="Modbus Master" style="rounded=0;whiteSpace=wrap;html=1;" vertex="1" parent="1">
          <mxGeometry x="170" y="230" width="120" height="60" as="geometry" />
        </mxCell>
        <mxCell id="8YBc7bxGXD-Rz9hd7dQo-3" value="Slave 1" style="rounded=0;whiteSpace=wrap;html=1;" vertex="1" parent="1">
          <mxGeometry x="250" y="350" width="120" height="60" as="geometry" />
        </mxCell>
        <mxCell id="8YBc7bxGXD-Rz9hd7dQo-4" value="Slave 2" style="rounded=0;whiteSpace=wrap;html=1;" vertex="1" parent="1">
          <mxGeometry x="250" y="420" width="120" height="60" as="geometry" />
        </mxCell>
        <mxCell id="8YBc7bxGXD-Rz9hd7dQo-5" value="Slave 3" style="rounded=0;whiteSpace=wrap;html=1;" vertex="1" parent="1">
          <mxGeometry x="250" y="490" width="120" height="60" as="geometry" />
        </mxCell>
        <mxCell id="8YBc7bxGXD-Rz9hd7dQo-11" value="&lt;div&gt;LabGenius 1&lt;/div&gt;" style="rounded=0;whiteSpace=wrap;html=1;" vertex="1" parent="1">
          <mxGeometry x="620" y="350" width="120" height="60" as="geometry" />
        </mxCell>
        <mxCell id="8YBc7bxGXD-Rz9hd7dQo-14" value="&lt;div&gt;LabGenius 2&lt;/div&gt;" style="rounded=0;whiteSpace=wrap;html=1;" vertex="1" parent="1">
          <mxGeometry x="620" y="420" width="120" height="60" as="geometry" />
        </mxCell>
        <mxCell id="8YBc7bxGXD-Rz9hd7dQo-15" value="&lt;div&gt;LabGenius 3&lt;/div&gt;" style="rounded=0;whiteSpace=wrap;html=1;" vertex="1" parent="1">
          <mxGeometry x="620" y="490" width="120" height="60" as="geometry" />
        </mxCell>
        <mxCell id="8YBc7bxGXD-Rz9hd7dQo-18" style="edgeStyle=orthogonalEdgeStyle;rounded=0;orthogonalLoop=1;jettySize=auto;html=1;entryX=0;entryY=0.5;entryDx=0;entryDy=0;" edge="1" parent="1" source="8YBc7bxGXD-Rz9hd7dQo-16" target="8YBc7bxGXD-Rz9hd7dQo-11">
          <mxGeometry relative="1" as="geometry" />
        </mxCell>
        <mxCell id="8YBc7bxGXD-Rz9hd7dQo-19" style="edgeStyle=orthogonalEdgeStyle;rounded=0;orthogonalLoop=1;jettySize=auto;html=1;entryX=0;entryY=0.5;entryDx=0;entryDy=0;" edge="1" parent="1" source="8YBc7bxGXD-Rz9hd7dQo-16" target="8YBc7bxGXD-Rz9hd7dQo-14">
          <mxGeometry relative="1" as="geometry" />
        </mxCell>
        <mxCell id="8YBc7bxGXD-Rz9hd7dQo-20" style="edgeStyle=orthogonalEdgeStyle;rounded=0;orthogonalLoop=1;jettySize=auto;html=1;entryX=0;entryY=0.5;entryDx=0;entryDy=0;" edge="1" parent="1" source="8YBc7bxGXD-Rz9hd7dQo-16" target="8YBc7bxGXD-Rz9hd7dQo-15">
          <mxGeometry relative="1" as="geometry" />
        </mxCell>
        <mxCell id="8YBc7bxGXD-Rz9hd7dQo-21" value="同步的互联系统" style="edgeLabel;html=1;align=center;verticalAlign=middle;resizable=0;points=[];" vertex="1" connectable="0" parent="8YBc7bxGXD-Rz9hd7dQo-20">
          <mxGeometry x="-0.7556" y="2" relative="1" as="geometry">
            <mxPoint x="-52" y="-13" as="offset" />
          </mxGeometry>
        </mxCell>
        <mxCell id="8YBc7bxGXD-Rz9hd7dQo-16" value="LabGenius Hub" style="rounded=0;whiteSpace=wrap;html=1;" vertex="1" parent="1">
          <mxGeometry x="520" y="230" width="120" height="60" as="geometry" />
        </mxCell>
        <mxCell id="8YBc7bxGXD-Rz9hd7dQo-26" style="edgeStyle=orthogonalEdgeStyle;rounded=0;orthogonalLoop=1;jettySize=auto;html=1;entryX=0;entryY=0.5;entryDx=0;entryDy=0;" edge="1" parent="1" source="8YBc7bxGXD-Rz9hd7dQo-22" target="8YBc7bxGXD-Rz9hd7dQo-23">
          <mxGeometry relative="1" as="geometry" />
        </mxCell>
        <mxCell id="8YBc7bxGXD-Rz9hd7dQo-27" style="edgeStyle=orthogonalEdgeStyle;rounded=0;orthogonalLoop=1;jettySize=auto;html=1;entryX=0;entryY=0.5;entryDx=0;entryDy=0;" edge="1" parent="1" source="8YBc7bxGXD-Rz9hd7dQo-22" target="8YBc7bxGXD-Rz9hd7dQo-24">
          <mxGeometry relative="1" as="geometry" />
        </mxCell>
        <mxCell id="8YBc7bxGXD-Rz9hd7dQo-28" style="edgeStyle=orthogonalEdgeStyle;rounded=0;orthogonalLoop=1;jettySize=auto;html=1;entryX=0;entryY=0.5;entryDx=0;entryDy=0;" edge="1" parent="1" source="8YBc7bxGXD-Rz9hd7dQo-22" target="8YBc7bxGXD-Rz9hd7dQo-25">
          <mxGeometry relative="1" as="geometry" />
        </mxCell>
        <mxCell id="8YBc7bxGXD-Rz9hd7dQo-22" value="Can总线" style="rounded=0;whiteSpace=wrap;html=1;" vertex="1" parent="1">
          <mxGeometry x="-80" y="230" width="120" height="60" as="geometry" />
        </mxCell>
        <mxCell id="8YBc7bxGXD-Rz9hd7dQo-23" value="Slave 1" style="rounded=0;whiteSpace=wrap;html=1;" vertex="1" parent="1">
          <mxGeometry y="350" width="120" height="60" as="geometry" />
        </mxCell>
        <mxCell id="8YBc7bxGXD-Rz9hd7dQo-24" value="Slave 2" style="rounded=0;whiteSpace=wrap;html=1;" vertex="1" parent="1">
          <mxGeometry y="420" width="120" height="60" as="geometry" />
        </mxCell>
        <mxCell id="8YBc7bxGXD-Rz9hd7dQo-25" value="Slave 3" style="rounded=0;whiteSpace=wrap;html=1;" vertex="1" parent="1">
          <mxGeometry y="490" width="120" height="60" as="geometry" />
        </mxCell>
        <mxCell id="8YBc7bxGXD-Rz9hd7dQo-37" style="edgeStyle=orthogonalEdgeStyle;rounded=0;orthogonalLoop=1;jettySize=auto;html=1;entryX=0;entryY=0.5;entryDx=0;entryDy=0;" edge="1" parent="1" source="8YBc7bxGXD-Rz9hd7dQo-32" target="8YBc7bxGXD-Rz9hd7dQo-34">
          <mxGeometry relative="1" as="geometry" />
        </mxCell>
        <mxCell id="8YBc7bxGXD-Rz9hd7dQo-38" style="edgeStyle=orthogonalEdgeStyle;rounded=0;orthogonalLoop=1;jettySize=auto;html=1;entryX=0;entryY=0.5;entryDx=0;entryDy=0;" edge="1" parent="1" source="8YBc7bxGXD-Rz9hd7dQo-32" target="8YBc7bxGXD-Rz9hd7dQo-35">
          <mxGeometry relative="1" as="geometry" />
        </mxCell>
        <mxCell id="8YBc7bxGXD-Rz9hd7dQo-39" style="edgeStyle=orthogonalEdgeStyle;rounded=0;orthogonalLoop=1;jettySize=auto;html=1;entryX=0;entryY=0.5;entryDx=0;entryDy=0;" edge="1" parent="1" source="8YBc7bxGXD-Rz9hd7dQo-32" target="8YBc7bxGXD-Rz9hd7dQo-36">
          <mxGeometry relative="1" as="geometry" />
        </mxCell>
        <mxCell id="8YBc7bxGXD-Rz9hd7dQo-32" value="DirectX" style="rounded=0;whiteSpace=wrap;html=1;" vertex="1" parent="1">
          <mxGeometry x="-290" y="230" width="120" height="60" as="geometry" />
        </mxCell>
        <mxCell id="8YBc7bxGXD-Rz9hd7dQo-34" value="Camera 1" style="rounded=0;whiteSpace=wrap;html=1;" vertex="1" parent="1">
          <mxGeometry x="-210" y="350" width="120" height="60" as="geometry" />
        </mxCell>
        <mxCell id="8YBc7bxGXD-Rz9hd7dQo-35" value="Camera 3" style="rounded=0;whiteSpace=wrap;html=1;" vertex="1" parent="1">
          <mxGeometry x="-210" y="420" width="120" height="60" as="geometry" />
        </mxCell>
        <mxCell id="8YBc7bxGXD-Rz9hd7dQo-36" value="Camera 3" style="rounded=0;whiteSpace=wrap;html=1;" vertex="1" parent="1">
          <mxGeometry x="-210" y="490" width="120" height="60" as="geometry" />
        </mxCell>
      </root>
    </mxGraphModel>
  </diagram>
</mxfile>
